# xmcd
#
# Track frame offsets: 
#        150
#        12773
#        29540
#        56210
#        75152
#        90905
#        116474
#        128152
#        149253
#        166272
#        189344
#        212490
#        231439
#        249349
#
# Disc length: 3932 seconds
#
# Revision: 1
# Processed by: cddbd v1.5.2PL0 Copyright (c) Steve Scherf et al.
# Submitted via: ExactAudioCopy v1.3
#
DISCID=aa0f5a0e
DTITLE=Various Artist - Soul Bag Sampler, Jun 2014
DYEAR=2014
DGENRE=Soul
TTITLE0=Derobert and The Half Truths - My momma told me
TTITLE1=Ursula Ricks - My street
TTITLE2=Anthony Joseph - Hustle to live
TTITLE3=Roin Mc Kelle and The Flytones - Like a river
TTITLE4=Son Of Dave - We going out
TTITLE5=Frank Bey and Anthony Paule - You're somebody else's baby too
TTITLE6=Nikki and Jules - Angel kiss
TTITLE7=Bryan Lee - Why
TTITLE8=Bo Weavil - Keep on runnin'
TTITLE9=Dumpstaphunk - I know you know
TTITLE10=Karl W Davis and The Sweetpeas - Rumor mill
TTITLE11=Dave Keller - Searchin' for a sign
TTITLE12=Sugaray Rayford - Stuck for a buck
TTITLE13=Harmonica Shah - Death bell tollin'
EXTD=
EXTT0=
EXTT1=
EXTT2=
EXTT3=
EXTT4=
EXTT5=
EXTT6=
EXTT7=
EXTT8=
EXTT9=
EXTT10=
EXTT11=
EXTT12=
EXTT13=
PLAYORDER=
